<svg id="visual" viewBox="0 0 900 600" width="900" height="600" xmlns="http://www.w3.org/2000/svg" xmlns:xlink="http://www.w3.org/1999/xlink" version="1.1"><rect x="0" y="0" width="900" height="600" fill="#9fe7f5"></rect><defs><linearGradient id="grad1_0" x1="33.3%" y1="0%" x2="100%" y2="100%"><stop offset="20%" stop-color="#fbae3c" stop-opacity="1"></stop><stop offset="80%" stop-color="#fbae3c" stop-opacity="1"></stop></linearGradient></defs><defs><linearGradient id="grad1_1" x1="33.3%" y1="0%" x2="100%" y2="100%"><stop offset="20%" stop-color="#fbae3c" stop-opacity="1"></stop><stop offset="80%" stop-color="#9fe7f5" stop-opacity="1"></stop></linearGradient></defs><defs><linearGradient id="grad2_0" x1="0%" y1="0%" x2="66.7%" y2="100%"><stop offset="20%" stop-color="#fbae3c" stop-opacity="1"></stop><stop offset="80%" stop-color="#fbae3c" stop-opacity="1"></stop></linearGradient></defs><defs><linearGradient id="grad2_1" x1="0%" y1="0%" x2="66.7%" y2="100%"><stop offset="20%" stop-color="#9fe7f5" stop-opacity="1"></stop><stop offset="80%" stop-color="#fbae3c" stop-opacity="1"></stop></linearGradient></defs><g transform="translate(900, 0)"><path d="M0 486.7C-51 450 -101.9 413.3 -163.8 395.4C-225.7 377.5 -298.5 378.5 -344.2 344.2C-389.9 309.9 -408.5 240.4 -427.8 177.2C-447 113.9 -466.9 57 -486.7 0L0 0Z" fill="#90de99"></path><path d="M0 243.4C-25.5 225 -51 206.7 -81.9 197.7C-112.8 188.8 -149.2 189.2 -172.1 172.1C-194.9 155 -204.3 120.2 -213.9 88.6C-223.5 57 -233.4 28.5 -243.4 0L0 0Z" fill="#fbae3c"></path></g><g transform="translate(0, 600)"><path d="M0 -486.7C50.4 -447.8 100.8 -408.8 161.9 -390.8C222.9 -372.8 294.5 -375.9 344.2 -344.2C393.8 -312.5 421.5 -246.1 441.6 -182.9C461.7 -119.8 474.2 -59.9 486.7 0L0 0Z" fill="#90de99"></path><path d="M0 -243.4C25.2 -223.9 50.4 -204.4 80.9 -195.4C111.5 -186.4 147.3 -187.9 172.1 -172.1C196.9 -156.2 210.8 -123 220.8 -91.5C230.9 -59.9 237.1 -29.9 243.4 0L0 0Z" fill="#fbae3c"></path></g></svg>